<svg t="1570021046147" class="icon" viewBox="0 0 1024 1024" version="1.1" xmlns="http://www.w3.org/2000/svg" 
p-id="2928" width="200" height="200">
-<path d="M889.3 472c-3-13-15.5-35.7-65.4-41.3-6.4-0.7-12.5-1.3-18.4-1.9-41.5-4.2-59.2-7.2-68-20-12.8-18.7-28-43.6-35.3-55.7 0-13.6-6.9-29.3-20.2-45.7-2.2-2.7-4.5-5.4-7-8.1 4.9 0.8 10 1.1 15.1 1.1 54.7 0 99.3-44.5 99.3-99.3S744.7 102 690 102s-99.3 44.5-99.3 99.3c0 16.1 3.9 31.4 10.7 44.9-25.4-12-51.7-18-78.2-18-20.3 0-41.3 3.6-62.2 10.6-39.9 13.4-146.7 61.7-174.3 101.4-4.9 7-15.2 25.5-5.3 44.4 8 15.3 25.3 23.7 48.7 23.7 23 0 49.5-8.3 72.9-22.9 30.6-19 66.5-32.3 87.3-32.3 1.8 0 3.3 0.1 4.5 0.3-1.4 5.6-5.8 17.7-20.1 39.3-16.2 24.6-37 49.2-49.5 61.7-12.5 12.5-24.6 29.2-33 45.8-6.9 13.6-14.9 33.8-13.1 52.6 0.4 3.9 1.1 7.6 2.2 11.1-9.7 10.8-23.3 26.2-38.7 44.6-0.8 0.9-8.8 9-52.5 9-15 0-30.9-0.8-46.4-1.7-14.4-0.8-28-1.5-40.1-1.5-13.9 0-24.1 1-32.1 3.1-25.4 6.8-41.6 28.8-41.4 55.9 0.1 12.8 3.9 25.7 10.8 36.4 7.9 12.5 19.1 20.8 32.4 24.1 22.3 5.6 100.6 14.2 159 14.2 28.3 0 49.6-2 63.4-6 23.8-6.9 48.9-31 74.6-71.6 8.2-13 15.2-25.5 20.5-35.5 8.1 4.4 15.2 8.4 21.6 12.2 24.8 14.8 32.1 22.5 33.8 24.8 2.7 22.9-15.8 99.1-40.5 139.4-18.6 30.3-22.4 66.1-9.6 89.1 8.2 14.6 22.3 23 38.6 23l0 0c9.7 0 19.7-3 29.9-8.8 45.3-25.9 76.7-87 104.4-141l0.2-0.4c2-4 4.2-8 6.3-12.2 13.2-25.4 28.2-54.2 34.5-80.6 11.9-50.1-13.3-72.8-29.4-81.8-25.1-14.1-83.9-47.2-90.6-75.7-1.3-5.5-0.2-10.3 3.6-15.9 7.4-10.9 16.7-23.7 28.3-39 11.9 20 30 46.2 50.9 61.6 15.2 11.2 39.4 16.9 72.1 16.9 45 0 97.1-10.7 118.7-24.3C884.3 509.3 893.7 490.9 889.3 472zM638.7 201.2c0-28.3 23-51.3 51.3-51.3 28.3 0 51.3 23 51.3 51.3s-23 51.3-51.3 51.3C661.7 252.5 638.7 229.5 638.7 201.2zM543.2 534.1c11.6 49 78 86.4 113.8 106.5 5.9 3.3 11.2 9.5 5.9 30.2-4.4 17.3-14.8 38.9-30 68.2-2.2 4.2-4.4 8.4-6.4 12.4l-0.2 0.4c-24.7 48-52.6 102.4-85.5 121.2-1.5 0.8-2.7 1.4-3.7 1.8-1.8-6.6-0.8-21.7 9.4-38.4 13.6-22.2 26.9-55.2 36.5-90.6 5.7-21.2 14.6-60.4 10-84.6-2.8-14.5-14.5-28.1-38.2-44-18.9-12.8-45.8-27.6-92.9-51.1-10.5-5.3-20.4-10.2-27.8-14.2l-7.4-4.3c-0.5-12.2 13.2-40.2 32.4-59.4 14.8-14.8 37.9-42.2 56.1-69.9 26.6-40.6 34-67.8 24-87.9-11.1-22.1-35.4-25.4-48.8-25.4-30.2 0-73.3 15.2-112.6 39.6-15 9.3-31.3 14.9-45 15.6 11.1-10.3 31.7-23.8 58.8-38.2 28.6-15.2 62.7-30.4 84.8-37.8 16-5.4 31.8-8.1 46.9-8.1 25.8 0 51.7 8 76.7 23.9 24.5 15.5 38.1 29.3 45.1 38.1 4.5 5.7 6.9 9.9 8 12.5l-1.8 2.6c-5.8 7.6-15.4 19.6-23.9 30.2l-0.1 0.1c-22.3 27.8-52.8 65.9-73.6 96.8C542.3 497.2 538.8 515.3 543.2 534.1zM446.9 615c-4.5 8.5-10.4 19-17.2 29.7-27 42.5-43.1 49.9-47.5 51.2-5.3 1.5-18.8 4.1-50 4.1-56.6 0-129.4-8.3-147.3-12.7-2.3-0.6-6.8-6.6-6.8-14.4-0.1-6.9 3-8.3 5.9-9.1 2.1-0.6 7.4-1.5 19.6-1.5 10.8 0 23.8 0.7 37.6 1.4 16 0.9 32.6 1.7 48.9 1.7 31.4 0 70-3 89.4-26.3 14.3-17.1 27.1-31.7 36.6-42.2L446.9 615zM676 402.1c6.8 10.9 14.7 23.1 22 33.8 22.2 32.5 59.5 36.2 102.8 40.6 5.8 0.6 11.7 1.2 17.8 1.9 8.7 1 14.6 2.5 18.5 3.9-11.9 6.9-52.7 16.5-92.4 16.5-24.6 0-38.9-4.1-43.6-7.5-18.7-13.9-36.4-43.5-45.2-60L676 402.1z" fill="#1296db" p-id="2929"></path></svg>